PathFileType	4	(X/Y/Z)	39_2_15_p0_0-398_filt_butterworth.trc
DataRate	CameraRate	NumFrames	NumMarkers	Units	OrigDataRate	OrigDataStartFrame	OrigNumFrames
59.0	59.0	5	27	m	59.0	298	398
Frame#	Time	RHip			RKnee			RAnkle			RBigToe			RSmallToe			RHeel			LHip			LKnee			LAnkle			LBigToe			LSmallToe			LHeel			Neck			Head			Nose			RShoulder			RElbow			RWrist			RThumb			RIndex			RPinky			LShoulder			LElbow			LWrist			LThumb			LIndex			LPinky			
		X1	Y1	Z1	X2	Y2	Z2	X3	Y3	Z3	X4	Y4	Z4	X5	Y5	Z5	X6	Y6	Z6	X7	Y7	Z7	X8	Y8	Z8	X9	Y9	Z9	X10	Y10	Z10	X11	Y11	Z11	X12	Y12	Z12	X13	Y13	Z13	X14	Y14	Z14	X15	Y15	Z15	X16	Y16	Z16	X17	Y17	Z17	X18	Y18	Z18	X19	Y19	Z19	X20	Y20	Z20	X21	Y21	Z21	X22	Y22	Z22	X23	Y23	Z23	X24	Y24	Z24	X25	Y25	Z25	X26	Y26	Z26	X27	Y27	Z27	
298	5.050847457627119	0.2762921527914438	0.5913770843700441	0.5899557385541867	0.23923220043434515	0.679669292971702	0.9469203911034249	0.23675970207900704	0.794815564662884	1.3131341091851518	0.21509018555201287	0.6575535292881518	1.3535598118015968	0.2707853678737531	0.6844010929620165	1.3619777281489343	0.21387899386830841	0.9022986426713995	1.3892285018124062	0.07461538979103538	0.6869482232572732	0.5836361409132328	0.08172278312511544	0.7401895670982864	0.9655923066982776	0.03829994306800498	0.8173934458180558	1.3349227766971719	0.060011444857251704	0.6254806488644151	1.3221090836177711	0.007551383603563146	0.681283816583059	1.3350739692258735	0.054201756163739664	0.862398730369126	1.374400836467517	0.2470111375490071	0.5561078935253884	-0.002084558944468807	0.25034892427634114	0.4920202441692807	-0.24670844337841868	0.20177766410846198	0.4450014591084681	-0.10471818093205582	0.40324469928961293	0.5202319202229175	0.08885164093394132	0.42850966752192	0.5478681266414288	0.36408683116534796	0.3556900614364071	0.4808158199633608	0.5938968432396629	0.2838882999809324	0.5300451931250378	0.6931083829658565	0.29094386807830874	0.5371280543586456	0.7397486479084204	0.32320377314403415	0.5683156688039914	0.7353131848564373	0.07618366210021567	0.6059434969315095	0.04899425995070022	-0.025835585132549157	0.6609150940873995	0.2920135502851658	0.0032907896557791303	0.6011372190353534	0.5344361855611915	0.0592568792893943	0.5751066474549434	0.6200621552375009	0.03420723504759483	0.5905392723502293	0.6387216226419861	0.0023373255999889573	0.6058242505865651	0.6429466480553078
299	5.067796610169491	0.2761510325118604	0.5917490562703664	0.5891086532038234	0.23799937104585994	0.6848574562428543	0.9477782558757569	0.23675957065300743	0.7948893115417169	1.3131595467466495	0.21504305956202485	0.6575657971706584	1.3536983927799187	0.270749002726021	0.6845367146365462	1.3620946087256003	0.21349176024133712	0.9023324973053054	1.3881659653155638	0.07455023518295276	0.6871111835631449	0.5820398591434619	0.08167288946135007	0.7401934667398028	0.9659140977148208	0.03823784780853557	0.8174626003662375	1.3349919402792019	0.0599871241552619	0.625578018359126	1.32216303249363	0.007738285302004164	0.680897284351946	1.333979283882569	0.05409153226392215	0.8619473954552316	1.3755636601517094	0.24657719628870184	0.5559017479191568	-0.002060856701618445	0.2520799340557641	0.4958987603642159	-0.2473804834870997	0.20185693115536912	0.4452046190446972	-0.10655781270230066	0.4032196788030716	0.5203042474062656	0.08887946300614949	0.42965138335055664	0.5464034909787377	0.3627888121196209	0.3569583363311927	0.4834690046112341	0.5930222677560689	0.2841547724658901	0.5297784834138779	0.6920497762180926	0.2913003154814669	0.534686156533253	0.7375607277116265	0.3231021829249425	0.5677400402773601	0.7331289865980914	0.07520247809117056	0.6048508139903472	0.04895566007846639	-0.025849437892841495	0.6608486428765843	0.2920295968727141	0.004844182778090834	0.59709168608156	0.5336692743434062	0.061670914574822946	0.5664819076821986	0.6192458822422866	0.035763838503130856	0.5871812473991409	0.6382050615019654	0.0026198801977366467	0.6055135083767735	0.6432424389361554
300	5.084745762711864	0.2761425715771678	0.5920654542410035	0.5887316524057558	0.2366636108473564	0.6892448966134834	0.9484477854931304	0.23673417981987763	0.7949634234205403	1.3131727612294342	0.21488282049470342	0.6571933183323267	1.353741964537614	0.27077655017837576	0.6850075673977163	1.3622769924281797	0.21294983849438498	0.9018214642626218	1.3881161100862922	0.07502886740798367	0.6857774281076312	0.5800973245643066	0.0817886383894468	0.740163891726064	0.9660326671344082	0.038167969880638086	0.8175521611069941	1.3351298891353593	0.05994528723433022	0.6256724569272476	1.3222020992987322	0.007971986980295961	0.6807411172891527	1.332933320380377	0.053908806981445005	0.8613879527439007	1.3768964648967308	0.24548656497921284	0.5553278491025468	-0.0020731982004806014	0.2538260162849439	0.5002184806265312	-0.24868604008992135	0.2019488945369347	0.4453104902279879	-0.10929243458024501	0.40280172193914204	0.5202127167507926	0.08880364554204721	0.4300688725383377	0.5431770554234046	0.3613474765338415	0.35880464187840055	0.4842053809028237	0.5929355969072475	0.2841407389926633	0.5297374472310478	0.691336564991893	0.29134745419852454	0.5344485104076632	0.7374963973453756	0.3236225758869088	0.5693744201406982	0.7313876068097459	0.07391868815853267	0.6035848248763958	0.048542530106814294	-0.02586461224664773	0.6608419321351066	0.2920131806691694	0.006686659290911822	0.5938341447961849	0.5329621678029203	0.06421536776842102	0.5576035737890596	0.6170016125486865	0.03640827323464901	0.5858617200444811	0.6378504372807952	0.002505129423308486	0.6051193872388635	0.6435041899669642
301	5.101694915254237	0.2766329015916435	0.5920027910235175	0.5879866947244226	0.23616709885715784	0.6916371642406851	0.9484521810642002	0.23670007737607837	0.7950404649266098	1.313183433980025	0.21476505665820902	0.6567841822375421	1.3537953957038928	0.27091967008176593	0.685706144252113	1.3624188118353602	0.2129269254303501	0.9001893112609384	1.3900523213429894	0.07640612509057348	0.682099034545242	0.578675801433632	0.08192323119132736	0.7401237447598196	0.9660604545780356	0.038146353474103764	0.8176098744817386	1.3351587399951799	0.05990266973529429	0.6257164726474282	1.3221866949549421	0.00819690973127726	0.6807559191810403	1.3328493573031233	0.053767968742581475	0.8610207073395385	1.3774756280311145	0.24405487694556588	0.5544916712480729	-0.002095304864601494	0.25505787638671334	0.5058431628106288	-0.25031181244130235	0.20201894046284485	0.4451092627505132	-0.11294469807292379	0.4018007258926168	0.5198558192929342	0.0884045353155274	0.43017403848486924	0.5387859091381899	0.35955666737059866	0.3601397998916435	0.48398394559445973	0.5925564214445489	0.2841250999361053	0.5300271931810814	0.6904610243565306	0.29169870241533785	0.5354638717172437	0.7383835920696115	0.3255509690694871	0.5758265041401982	0.7307471037448037	0.0729675247735195	0.6026201548530339	0.04721841025387555	-0.025894985285873518	0.6608629185431548	0.2919206108820405	0.008110882018135606	0.5925159518007873	0.5326110041897965	0.06656801556689378	0.5520017780246894	0.6149389609069916	0.036491310395681716	0.5858916349966317	0.638725854851417	0.002396954741188727	0.6047542571225667	0.6443250943410544
302	5.11864406779661	0.27793230549996584	0.5905652520755307	0.5860178865776811	0.2368233191702619	0.6919275947520392	0.9480162968572143	0.23668189435108705	0.7950566056685743	1.3132039719924287	0.2147389278061738	0.6563850086371527	1.353791635708851	0.27113147332292353	0.6863235092313602	1.3624716415481508	0.21412268715094693	0.8972821130804959	1.391913922618419	0.07837312137429703	0.6771173906273407	0.5779816053462803	0.08202294072158642	0.7400369408555936	0.9660725000994779	0.03828310882206122	0.8175336753066718	1.334693677715067	0.059866389114211674	0.6257344071168989	1.3221235412553476	0.00843392211662302	0.6806030453852574	1.3337241340441803	0.05375809853709602	0.861002364831473	1.3768032418079872	0.2429791925680475	0.5537024851397164	-0.0021533009362489463	0.25521010914984715	0.513201541772345	-0.2516696266006077	0.2020366683396084	0.44459654230277457	-0.11707335747457435	0.4005354771565485	0.5193240051844477	0.08747941965381499	0.4303681550149494	0.5351501092984192	0.3570053318626449	0.36070256962644753	0.4836926152265132	0.5908039791513477	0.28447078603659953	0.5306342318212954	0.6892927890698566	0.2929598141698001	0.5368680995820084	0.7380337338453645	0.32928313349710175	0.5866448897356865	0.731101472762468	0.07258208210091158	0.6022536828428572	0.045061829834777196	-0.025979527163821972	0.6608798192004901	0.29179016064750773	0.008624491399002638	0.5925349994438608	0.5326464096150905	0.06829262798022355	0.5504895707285742	0.6145136116575377	0.036872649607907315	0.5852647563977849	0.6409447189200257	0.0022879618052261534	0.6045946083627519	0.6456024638291205
